P2
# commentaire photo
8 8
10
1 5 6 5 0 5 4 5 1 10 4 7 5 0 5 4 1 3 4 7 1 2 3 7 3 6 6 3 2 1 7 3 2 1 5 6 5 0 5 4 10 5 7 1 0 4 4 5 6 1 3 4 7 1 2 3 2 7 4 3 1 6 3 2 