P2
# commentaire photo
16 16
14
0 1 5 5 2 9 5 4 0 1 5 5 2 9 5 4 2 3 5 5 7 9 6 5 0 1 5 5 2 9 5 4 8 9 1 1 14 7 5 2 0 1 5 5 2 9 5 4 10 11 1 2 2 13 2 7 0 1 5 5 2 9 5 4 0 0 1 5 5 2 9 5 4 0 1 5 5 2 9 5 4 2 3 5 5 7 9 6 5 0 1 5 5 2 9 5 4 8 9 1 1 14 7 5 2 0 1 5 5 2 9 5 4 10 11 1 2 2 13 2 3 0 1 5 5 2 9 5 4 0 0 1 5 5 2 9 5 4 0 1 5 5 2 9 5 4 2 3 5 5 7 9 6 5 0 1 5 5 2 9 5 4 8 9 1 1 14 7 5 2 0 1 5 5 2 9 5 4 10 11 1 2 2 13 2 7 0 1
5 5 2 9 5 4 0 0 1 5 5 2 9 5 4 0 1
5 5 2 9 5 4 2 3 5 5 7 9 6 5 0 1 5
5 2 9 5 4 8 9 1 1 14 7 5 2 0 1 5 5
2 9 5 4 0 1 5 5 2 9 5 4 0 1 5 5 2
