P2
# commentaire photo
64 64
208
36
34 34 34 35 35 34 36 37 40 42 45 47 43 40 36 34 31
33 32 32 32 32 31 31 31 31 31 32 32 32 31 31 32 32
34 39 39 33 32 33 32 32 32 31 31 33 34 35 35 39 41
36 32 31 31 31 32 33 33 32 32 32 32 37 38 36 36 35
36 39 36 47 44 55 51 47 55 40 43 32 35 31 31 32 31
32 32 32 32 31 31 32 32 31 32 32 31 34 31 37 38 34
34 32 34 32 32 31 31 34 33 35 35 44 40 33 38 32 32
31 31 32 32 32 32 32 32 38 37 37 37 37 36 39 42 42
39 41 48 46 36 33 34 34 32 32 32 31 32 32 32 32 32
32 31 32 32 32 32 32 32 32 34 39 36 34 34 35 32 32
32 31 32 34 37 38 36 38 41 37 33 32 32 32 32 32 32
32 32 32 32 35 34 36 36 35 36 34 36 32 33 42 35 34
40 31 32 31 31 32 31 32 31 32 32 32 32 31 32 31 32
32 32 33 33 35 33 36 41 35 34 32 34 32 32 33 31 39
36 36 38 36 37 33 36 32 33 32 32 31 31 32 32 32 32
32 32 33 34 33 32 33 32 32 32 36 39 35 33 32 33 32
32 32 31 31 32 33 33 32 32 32 32 32 32 32 32 32 32
33 37 39 36 35 37 37 34 33 32 31 33 36 38 37 34 34
35 36 36 34 34 33 33 32 32 32 32 32 33 31 32 32 31
32 32 32 32 34 33 38 38 32 33 35 33 32 33 31 31 32
31 34 33 32 33 32 32 32 32 32 32 33 32 34 33 35 34
45 39 37 42 32 34 33 32 35 35 34 35 34 33 36 35 35
35 32 33 32 32 32 32 34 33 32 32 32 32 33 32 33 32
34 36 38 36 33 32 32 33 32 32 31 32 32 32 32 35 36
34 32 32 32 32 32 32 32 32 32 32 32 33 38 43 40 35
33 32 32 33 34 34 36 40 42 40 36 35 34 32 32 32 32
32 32 32 33 34 32 32 32 32 32 32 32 32 35 34 33 36
32 32 34 32 31 32 33 31 33 33 36 32 36 38 32 33 32
32 32 32 32 33 32 33 32 32 36 35 32 34 32 32 33 32
37 35 47 40 47 54 35 38 32 33 31 32 32 32 32 32 33
32 33 34 33 32 32 32 32 32 33 34 33 33 32 33 36 38
35 31 34 40 43 38 34 37 40 33 32 31 31 32 33 34 35
33 34 32 33 34 35 34 33 32 32 32 33 35 38 41 40 42
47 43 38 36 35 33 32 32 32 32 32 32 33 34 34 34 35
35 33 34 33 33 33 33 33 33 36 34 45 40 39 42 53 46
39 48 40 36 35 41 32 32 32 31 37 34 35 39 32 34 35
32 36 37 33 34 33 32 36 35 39 38 36 39 37 37 36 36
34 39 32 32 34 33 32 32 33 32 35 34 34 34 35 34 33
33 33 33 34 34 35 37 42 46 51 50 55 63 55 39 36 41
51 49 39 33 32 32 34 38 44 41 37 34 34 36 38 38 36
32 31 33 34 33 34 35 34 38 39 35 34 37 45 34 33 33
34 34 33 32 32 32 36 38 34 35 33 34 32 32 32 33 34
34 38 34 49 47 43 44 44 39 45 51 40 36 81 57 41 69
31 32 37 32 46 44 41 44 38 38 41 39 40 44 34 36 34
35 34 34 43 38 37 41 43 34 34 43 33 33 33 33 32 32
32 32 39 39 37 35 34 33 33 32 32 32 33 34 33 36 48
51 41 36 33 33 36 38 33 35 44 64 89 60 36 32 32 34
38 40 43 41 40 40 40 42 54 68 58 49 42 39 39 39 43
76 50 49 55 55 45 35 33 33 31 33 32 32 32 33 41 40
37 39 34 35 33 33 32 32 33 32 39 35 48 50 37 42 32
34 33 32 32 32 37 34 76 65 33 44 33 34 35 34 37 37
38 37 38 37 97 54 74 91 55 67 41 47 81 58 50 56 53
59 39 51 32 35 33 33 31 32 32 32 36 40 41 39 37 35
35 35 33 33 33 33 36 40 41 43 42 40 40 37 35 32 32
32 33 33 40 66 55 37 35 34 35 36 36 36 36 38 37 35
41 98 121 78 60 62 49 55 71 67 57 57 58 54 57 72 53
33 33 32 33 32 32 32 33 33 39 36 38 41 35 35 34 34
34 34 38 35 40 39 42 41 39 42 34 36 33 33 33 32 50
33 40 55 35 34 39 36 37 38 39 37 34 37 67 36 103 130
47 57 66 52 46 60 114 71 100 134 67 69 35 57 32 33 32
33 32 32 34 33 33 34 38 40 37 34 33 34 34 35 35 38
41 42 40 41 40 39 37 37 36 35 33 31 34 44 53 44 35
36 41 40 37 36 36 36 36 34 35 44 90 122 71 41 52 85
57 69 78 38 47 82 61 61 68 35 33 32 32 32 31 32 32
33 32 31 35 33 36 36 34 34 35 34 35 34 36 35 36 36
36 36 34 36 36 35 32 34 38 33 50 48 50 50 40 48 36
37 34 36 34 34 39 34 103 54 48 86 75 44 63 59 33 41
83 33 62 68 34 54 33 32 31 32 32 32 33 33 32 32 32
32 32 31 33 33 34 35 35 34 33 33 34 33 33 34 34 32
33 34 33 33 32 33 36 40 49 60 54 45 43 42 38 35 35
34 34 35 45 77 89 50 51 100 66 55 59 35 36 76 70 68
48 32 32 31 31 31 32 32 32 32 32 32 32 32 31 33 32
32 37 34 35 36 36 36 33 35 34 33 33 34 33 32 32 33
32 32 32 32 44 37 47 46 52 51 42 46 34 37 36 34 62
41 43 65 76 39 49 108 68 49 63 69 67 56 32 39 30 31
31 31 33 32 32 32 32 32 32 31 31 32 32 34 36 36 36
37 39 39 37 35 34 35 36 34 33 33 32 32 31 33 35 34
36 37 40 43 49 56 62 55 46 36 37 38 41 60 54 38 36
41 87 81 61 62 53 61 65 41 32 31 32 31 31 32 32 32
32 32 32 32 32 32 33 32 36 35 35 36 37 35 49 44 37
42 37 37 37 37 31 33 31 32 35 31 37 38 34 35 39 31
54 43 76 74 41 57 38 35 45 40 35 43 35 36 84 50 113
107 56 100 34 58 31 32 31 32 32 32 32 32 34 34 33 32
32 32 33 34 35 35 33 32 33 35 39 46 42 38 38 38 39
41 39 34 32 31 32 34 62 38 38 140 152 119 35 42 57 85
72 48 37 36 37 38 42 44 39 36 35 36 39 49 57 36 32
32 32 31 32 31 32 32 32 32 35 34 33 34 32 32 34 33
33 34 31 32 32 32 37 33 38 38 41 39 48 43 47 52 34
37 142 65 110 139 151 48 147 152 157 126 60 147 47 66 36 38
36 36 48 41 37 45 33 33 32 32 32 31 33 34 31 32 31
32 32 32 31 32 33 35 34 33 33 32 32 33 32 32 32 32
32 32 32 33 37 36 37 42 41 45 61 65 44 41 95 134 131
125 83 131 132 136 133 134 154 115 86 35 36 37 37 37 37 40
40 38 34 34 33 32 32 32 33 33 32 31 31 32 32 32 32
32 34 34 33 34 32 33 32 32 32 32 33 32 33 35 33 32
35 34 35 34 40 37 73 47 73 140 126 71 111 114 132 90 127
121 124 114 164 170 100 178 37 33 44 42 35 36 37 37 35 36
33 33 32 32 33 32 31 32 32 31 32 32 32 32 33 33 33
33 33 32 32 32 32 31 32 34 35 34 33 33 34 33 32 35
37 37 42 141 143 124 89 110 112 117 84 123 131 127 127 131 164
157 155 91 30 37 43 44 38 33 35 36 37 36 33 32 32 32
32 32 32 32 32 32 32 32 32 32 33 34 35 33 32 33 31
31 31 32 34 32 33 34 33 33 35 35 39 35 43 43 133 36
133 118 65 110 122 122 93 91 121 144 149 136 154 159 100 142 39
126 47 43 36 41 35 33 37 37 32 32 32 32 32 32 32 32
32 32 32 32 32 32 35 34 36 35 33 31 31 31 32 32 32
33 34 32 32 33 34 36 39 44 44 68 127 122 149 121 132 93
62 132 114 98 150 109 143 160 161 148 90 122 144 96 44 50 46
38 34 34 37 35 32 32 31 32 32 32 32 32 32 32 32 32
32 32 35 34 37 37 32 33 31 32 32 32 32 32 33 34 31
31 34 32 40 36 125 34 173 173 155 158 140 131 146 73 194 139
150 171 153 147 106 125 127 142 160 133 58 52 38 49 33 34 34
35 32 32 32 32 33 32 32 32 32 32 32 32 32 32 33 35
37 35 34 34 34 33 31 31 31 32 32 32 32 32 33 34 35
37 35 163 131 130 168 148 116 124 163 175 97 59 135 184 156 99
120 133 138 161 149 98 49 52 52 39 34 33 33 33 32 32 31
31 31 32 32 32 32 32 32 32 32 32 35 34 35 36 34 34
34 35 31 31 32 31 32 32 32 32 34 33 34 33 51 31 176
160 152 151 143 139 73 182 43 38 114 36 101 169 134 123 107 124
133 98 33 126 39 46 33 34 33 32 32 32 32 31 31 32 32
32 32 32 32 32 32 32 34 35 35 32 32 33 33 32 32 32
31 31 33 32 32 33 34 32 33 32 32 31 30 49 83 109 128
142 172 53 37 33 35 97 187 105 86 119 136 145 142 147 161 33
37 36 34 32 33 33 32 32 33 32 32 31 31 31 31 32 32
31 31 32 33 34 32 32 31 32 32 31 31 31 32 32 32 32
32 32 32 33 32 33 55 31 148 138 77 119 50 53 84 155 36
35 159 42 129 183 165 130 185 180 137 184 32 58 33 33 33 33
33 33 32 32 33 33 32 32 31 31 32 31 31 32 32 31 33
32 31 31 32 31 31 32 32 32 31 30 32 32 32 32 32 33
34 33 31 140 180 189 181 169 137 104 132 162 156 90 127 153 100
97 157 171 183 184 189 116 33 34 33 32 32 33 34 33 33 32
33 33 33 32 32 31 31 32 31 31 32 32 32 31 31 32 31
31 31 31 31 31 31 31 32 31 31 32 33 32 34 34 125 28
183 181 179 186 92 151 130 56 125 155 116 127 89 49 186 115 193
195 178 185 34 49 32 33 33 32 34 34 32 33 33 33 32 33
32 32 31 31 32 31 33 32 32 32 32 32 31 31 31 31 32
32 31 31 32 32 31 31 31 34 34 34 32 43 113 196 188 172
133 103 46 65 65 39 48 59 51 93 143 123 170 196 196 117 33
37 35 34 36 36 36 34 33 33 34 34 34 35 34 32 32 32
31 31 31 31 31 31 31 31 32 31 32 31 32 32 31 32 31
31 31 31 32 32 35 34 31 32 166 101 156 160 67 174 121 94
92 78 151 54 79 165 157 132 106 124 51 99 36 39 38 39 38
38 36 37 34 34 34 34 34 34 34 33 32 33 32 32 31 32
32 32 32 32 31 31 31 31 32 32 32 32 31 31 31 31 32
32 34 36 35 33 48 167 191 199 101 150 176 164 148 170 91 160
198 193 147 166 170 150 137 45 39 39 39 39 41 41 37 35 33
33 33 33 33 32 32 33 33 32 33 34 33 32 31 31 31 31
32 31 32 31 32 32 32 32 32 32 31 31 32 31 36 34 35
36 69 36 47 79 196 179 192 190 199 196 143 139 208 208 143 200
148 85 33 99 39 36 39 38 40 40 35 37 32 33 33 33 32
32 32 32 32 32 35 34 33 34 31 31 31 31 31 32 34 34
32 32 32 32 32 33 33 31 31 32 32 35 36 34 33 32 31
65 200 201 201 197 205 204 184 116 206 206 202 190 35 34 35 35
35 37 37 37 37 38 36 35 33 32 33 33 33 33 32 32 32
32 34 35 35 34 31 31 31 31 33 31 33 34 32 32 32 32
33 32 33 33 32 33 34 33 32 33 32 32 55 32 190 167 178
198 207 203 104 192 198 147 127 186 35 35 33 34 34 33 36 35
38 37 35 36 32 33 32 32 32 32 31 32 32 32 34 32 34
35 31 31 31 32 31 33 33 32 32 31 31 31 32 32 33 33
33 33 33 33 33 32 31 32 29 32 39 97 52 119 189 197 150
96 99 70 59 33 36 34 34 32 31 33 34 36 38 38 36 36
35 34 33 33 33 33 31 31 32 32 32 33 34 34 31 31 32
32 33 32 32 32 31 31 32 32 32 32 33 32 33 32 33 32
32 32 32 31 30 31 30 32 38 33 86 58 56 44 31 48 36
33 38 37 32 35 34 32 38 36 39 39 37 37 35 36 32 32
32 32 35 33 35 35 34 33 35 35 31 32 32 32 32 31 31
31 32 32 32 32 32 32 32 31 31 31 32 32 31 31 31 31
32 31 32 32 32 36 37 34 33 32 32 33 33 35 37 39 35
33 33 36 38 39 40 40 38 37 37 36 34 33 32 33 34 36
37 36 35 34 35 36 33 32 34 33 32 32 31 31 32 32 32
31 32 32 31 32 31 32 32 31 31 31 31 31 31 31 32 32
35 33 35 35 33 32 32 32 34 33 36 35 32 34 37 33 43
41 41 41 38 40 36 37 34 35 33 33 36 35 35 37 34 34
37 34 32 33 34 34 33 32 31 31 32 31 31 31 32 32 32
31 32 31 31 31 31 31 31 31 31 32 32 32 31 34 35 34
33 33 32 32 33 33 33 33 33 32 33 37 43 46 43 42 41
38 36 34 34 35 34 33 34 35 36 36 32 33 33 37 33 32
34 34 32 33 31 31 31 31 32 31 32 32 31 32 31 31 31
31 31 31 31 31 32 31 32 32 33 33 35 34 32 34 32 32
32 33 32 32 32 32 35 32 42 40 40 42 38 40 35 37 36
35 34 36 37 35 40 40 34 36 39 36 32 33 34 34 33 32
31 30 31 31 31 31 32 32 32 31 31 31 31 31 31 31 31
31 32 32 32 33 32 32 33 35 34 33 32 32 32 33 33 32
32 33 33 35 38 39 38 39 39 39 40 38 38 37 37 36 36
39 44 44 40 38 40 45 33 32 34 34 32 32 31 31 31 32
32 31 33 33 31 32 32 32 31 31 31 31 31 31 32 31 33
32 31 31 33 32 33 34 32 33 34 33 32 33 34 32 38 35
39 38 37 37 41 39 40 43 38 39 38 39 39 37 46 45 42
42 54 46 32 33 33 33 32 32 31 31 32 31 31 32 33 32
32 32 33 32 32 31 31 31 31 31 31 31 32 34 33 32 32
32 33 33 34 34 36 35 33 32 32 33 35 38 40 41 41 43
43 43 43 40 38 37 38 38 38 38 43 44 44 45 48 58 32
32 32 32 32 32 31 31 31 31 31 31 32 32 32 32 33 33
32 32 32 32 32 32 31 32 35 31 34 35 32 32 32 32 37
34 37 38 32 33 33 32 37 34 46 41 51 50 46 49 38 42
36 36 37 38 39 40 45 43 53 45 55 53 32 32 32 32 32
32 32 32 31 31 31 31 32 32 32 33 33 33 32 32 32 34
33 32 32 31 32 33 34 33 32 31 32 32 34 36 38 38 35
33 34 36 35 36 42 53 57 52 55 50 44 39 37 36 37 39
39 41 45 47 50 56 57 53 32 32 32 32 32 32 31 32 31
31 32 32 32 32 32 32 33 32 32 32 35 33 32 34 32 32
33 32 32 32 31 32 32 31 34 33 39 36 35 37 37 35 39
38 57 46 50 56 55 53 46 50 42 44 39 39 41 40 49 45
61 53 59 65 32 32 32 32 32 32 32 31 31 32 32 32 31
31 31 32 32 32 32 32 33 35 35 33 32 32 32 32 33 32
32 32 32 32 32 33 35 39 37 34 36 39 44 45 48 51 53
47 48 51 55 55 53 50 45 44 42 43 46 50 55 63 74 68
32 32 32 32 33 32 32 33 32 32 32 32 31 31 32 31 32
31 32 32 34 32 35 37 32 32 32 32 32 32 32 32 32 32
32 32 37 34 35 36 43 35 57 53 49 52 49 52 44 48 49
47 53 53 49 49 50 50 51 49 59 57 70 71 33 32 32 32
32 33 33 32 32 31 32 32 33 32 33 32 32 32 32 32 32
34 35 34 32 32 32 32 32 32 32 32 32 33 32 33 35 36
36 35 38 44 61 69 56 49 51 56 50 40 37 40 43 46 50
56 55 58 57 55 54 55 60 67 32 32 31 31 32 32 32 32
32 32 34 33 32 33 32 33 32 32 32 32 32 32 32 33 31
31 32 32 31 31 32 32 32 32 35 32 37 36 36 36 49 39
68 62 50 56 54 49 37 46 35 34 45 39 55 48 70 61 64
68 55 57 63 59 32 32 31 31 32 32 32 32 32 32 33 34
33 32 33 32 32 32 32 32 33 32 32 32 32 32 31 31 32
32 31 31 32 32 33 36 38 38 36 36 38 45 54 57 54 48
50 48 41 36 35 38 41 45 53 56 61 70 71 71 60 66 75
81 32 32 31 31 32 32 32 32 32 32 33 32 32 33 32 33
33 32 32 32 32 32 32 32 32 31 32 32 32 31 32 32 33
32 36 33 42 40 40 40 42 40 53 50 51 51 46 52 38 41
42 39 50 47 58 54 66 59 73 71 75 68 96 84 32 31 32
33 30 31 31 31 32 32 32 32 32 32 32 32 31 32 32 31
31 32 32 32 32 32 32 32 32 32 32 32 33 34 34 35 39
46 52 52 45 42 49 60 63 59 57 51 47 42 46 45 48 52
58 64 59 58 69 74 69 72 84 87 32 33 32 33 31 31 32
32 32 32 32 32 32 31 32 32 33 32 32 33 32 31 32 32
31 31 32 32 31 31 32 32 34 32 35 34 47 39 66 62 45
54 71 52 77 81 61 71 49 54 48 47 58 49 76 70 56 67
75 68 78 81 79 81 31 31 32 32 31 31 31 32 33 32 32
32 31 32 32 32 32 33 33 32 31 32 32 32 32 32 31 31
32 32 31 31 33 34 34 36 39 47 58 68 57 47 50 67 89
85 80 65 58 55 53 51 52 57 74 90 87 68 62 68 75 72
71 73 45 42 32 30 31 32 32 31 32 33 31 32 32 32 32
32 33 32 32 33 32 31 32 32 32 31 32 32 32 31 32 32
34 33 37 34 42 39 57 49 45 56 60 45 87 83 58 75 52
53 57 55 62 57 89 73 82 96 68 68 73 72 76 78 