P2
# commentaire photo
2 2
6
3
4 3 6 