P2
# commentaire photo
4 4
15
0 1 4 5 3 2 6 7 12 13 8 9 14 15 10 11 