P2
# Photo genere apres compression
4 4
15
1 1 4 5 1 1 6 7 12 13 8 9 14 15 10 11 