P2
# Photo genere apres compression
16 16
14
1 1 5 5 2 9 5 5 0 0 5 5 2 9 5 5 1 1 5 5 7 9 5 5 0 0 5 5 2 9 5 5 10 10 1 1 14 7 4 4 0 0 5 5 2 9 5 5 10 10 1 1 2 13 4 4 0 0 5 5 2 9 5 5 0 0 3 3 4 4 7 7 4 0 2 2 5 5 5 5 4 2 3 3 4 4 7 7 5 0 2 2 5 5 5 5 4 8 9 1 1 14 7 5 1 1 2 2 5 5 5 5 4 10 11 1 2 2 13 2 1 1 2 2 5 5 5 5 2 2 1 1 5 5 2 9 5 5 0 0 5 5 2 9 2 2 1 1 5 5 7 9 5 5 0 0 5 5 2 9 5 5 10 10 1 1 14 7 4 4 0 0 5 5 2 9 5 5 10 10 1 1 2 13 4 4 0 0
5 5 2 9 6 6 0 0 3 3 4 4 7 7 4 0 3
3 3 3 6 6 4 2 3 3 4 4 7 7 5 0 3 3
3 3 7 7 4 8 9 1 1 14 6 6 2 0 3 3 3
3 7 7 4 0 1 5 5 2 6 6 4 0 3 3 3 3
