P2
# commentaire photo
4 4
15
0 1 5 5 3 2 5 5 12 13 10 10 14 15 10 10 