P2
# Photo genere apres compression
2 2
254
46 98 200 254 