P2
# Photo genere apres compression
16 16
10
1 1 5 5 6 6 5 5 0 0 5 5 4 4 5 5 1 1 5 5 6 6 5 5 0 0 5 5 4 4 5 5 10 10 1 1 7 7 4 4 0 0 5 5 4 4 5 5 10 10 1 1 7 7 4 4 0 0 5 5 4 4 5 5 1 1 3 3 4 4 7 7 1 1 2 2 3 3 7 7 1 1 3 3 4 4 7 7 1 1 2 2 3 3 7 7 6 6 3 3 3 3 6 6 1 1 2 2 3 3 7 7 6 6 3 3 3 3 6 6 1 1 2 2 3 3 7 7 2 2 1 1 5 5 6 6 5 5 0 0 5 5 4 4 2 2 1 1 5 5 6 6 5 5 0 0 5 5 4 4 5 5 10 10 1 1 7 7 4 4 0 0 5 5 4 4 5 5 10 10 1 1 7 7 4 4 0 0
5 5 4 4 6 6 1 1 3 3 4 4 7 7 1 1 2
2 3 3 6 6 1 1 3 3 4 4 7 7 1 1 2 2
3 3 7 7 2 2 3 3 4 4 6 6 1 1 2 2 3
3 7 7 2 2 3 3 4 4 6 6 1 1 2 2 3 3
