P2
# commentaire photo
2 2
14
1 5 10 14 