P2
# Photo genere apres compression
4 4
254
10 10 80 120 10 10 120 80 254 254 200 200 254 254 200 200 