P2
# Photo généré après compression
4 4
15
0 1 5 5 3 2 5 5 12 13 8 9 14 15 10 11 